<svg xmlns="http://www.w3.org/2000/svg" viewBox="0 0 24 24">
  <title>Ресурс 24</title>
  <g id="Слой_2" data-name="Слой 2">
    <g id="Слой_1-2" data-name="Слой 1">
      <g>
        <rect width="24" height="24" style="fill: none"/>
        <path d="M21.5,10a1.4957,1.4957,0,0,0-1.4082,1H13.9082A1.49481,1.49481,0,0,0,13,10.0918V3.9082a1.49632,1.49632,0,1,0-1.92267-1.86163,9.998,9.998,0,1,0,10.8761,10.8761A1.49587,1.49587,0,0,0,21.5,10ZM12,21a8.9997,8.9997,0,0,1-.89417-17.9549A1.497,1.497,0,0,0,12,3.9082V10.0918A1.49648,1.49648,0,1,0,13.9082,12H20.0918a1.497,1.497,0,0,0,.8631.89417A9.00023,9.00023,0,0,1,12,21Z" style="fill: #22b2b4"/>
        <path d="M21.5,10H24A10,10,0,0,0,14,0V10ZM15,1.05865A8.99846,8.99846,0,0,1,22.94135,9H15Z" style="fill: #22b2b4"/>
      </g>
    </g>
  </g>
</svg>
